<svg height="256" viewBox="0 0 52 61" width="256" xmlns="http://www.w3.org/2000/svg">
  <path id="Shape" fill="whitesmoke" fill-opacity="0.3"
    d="m41.46 1.47c-.2964302-1.0623985-1.3969997-1.68426499-2.46-1.39l-11.93 3.48c-.62-2.15-.65-2.8-1.57-3.31-.4585956-.25043637-.9969902-.31145443-1.5-.17l-15.48 4.52c-1.05739477.29654179-1.67788768 1.39021634-1.39 2.45l7 26.23-10.59 11.07c-3.6782163 3.5898509-3.74985068 9.4817835-.15999986 13.1599999 3.58985082 3.6782163 9.48178336 3.7498508 13.15999986.1600001l1.46-1.26c1.5868774 2.0181874 3.933075 3.295962 6.4893429 3.534194 2.5562679.2382321 5.0981756-.5839942 7.0306571-2.274194 6.77-5.83 9.24-8.1 14.28-11.61 4.281227-2.9535634 6.2006477-8.3094312 4.77-13.31-8.17-28.68 8.63 31.19-9.11-31.28zm-30.27 12.93 15.65-4.4.61 2.1-15.69 4.42zm18.72-1.06 11.93-3.34.61 2.1-11.93 3.4zm9.63-11.34 1.74 6-11.93 3.4c-.07-.23-1.8-6.21-1.72-5.94zm-15 0c.88 3-1.09-3.78 1.74 6l-15.61 4.47-1.59-6c16.12-4.67 15.36-4.47 15.46-4.47zm-8.43 30.75-3.83-14.3 15.72-4.45 4.26 14.68c-7.19 3.79-10.2 10.83-5.5 17.86-3.39 2.56-6 4.9-10.44 8.66-2.3352882-4.4125402-5.7823306-8.138793-10-10.81l9.31-9.71c.4822457-.5174433.6636748-1.2469392.48-1.93zm12.28 12.59c-3.87-5.85-1.48-11.34 4.45-14.71l.78 2.68c1.1637207 4.1770952-.4406964 8.6333636-4 11.11-.41.3-.82.58-1.23.92zm-18.62 12.66c-2.78338378-.1893793-5.21289981-1.9548401-6.25268515-4.5436499s-.50642079-5.5443 1.37268515-7.6063501c4.21029185 2.566111 7.6267986 6.2491538 9.87 10.64-1.4212113 1.0995272-3.1976123 1.6370754-4.99 1.51zm9.72-2.87c3.27-2.76 2.49-2.17 5.8-4.87 1.7797622 1.8652155 3.2818256 3.9768607 4.46 6.27-1.5484762 1.1733182-3.4998715 1.6829341-5.424323 1.4165871-1.9244514-.2663471-3.6640819-1.2868068-4.835677-2.8365871zm11.82.08c-1.2038712-2.2591392-2.7037699-4.3475631-4.46-6.21 1.28-1 2.59-2 3.93-2.92 4.258013-2.9665812 6.1687211-8.3053245 4.76-13.3l-4.46-15.41 11.92-3.37 4.26 14.69c-7.16 3.77-10.22 10.8-5.5 17.86-3.94 2.95-5.48 4.45-10.45 8.64zm13.32-10.79c-.42.29-.83.6-1.25.9-3.83-5.8-1.51-11.31 4.46-14.69l.78 2.67c1.1736645 4.1781358-.4277328 8.6411778-3.99 11.12z" />
</svg>
